<svg width="17" height="17" viewBox="0 0 17 17" fill="none" xmlns="http://www.w3.org/2000/svg">
<g clip-path="url(#clip0_1_13676)">
<path d="M11.2254 5.51651C11.2254 5.43794 11.1612 5.37366 11.0826 5.37366L9.90402 5.37901L8.12902 7.49509L6.35581 5.3808L5.17545 5.37544C5.09688 5.37544 5.03259 5.43794 5.03259 5.5183C5.03259 5.55223 5.04509 5.58437 5.06652 5.61116L7.38973 8.37901L5.06652 11.1451C5.04494 11.1713 5.03297 11.204 5.03259 11.2379C5.03259 11.3165 5.09688 11.3808 5.17545 11.3808L6.35581 11.3754L8.12902 9.25937L9.90223 11.3737L11.0808 11.379C11.1594 11.379 11.2237 11.3165 11.2237 11.2362C11.2237 11.2022 11.2112 11.1701 11.1897 11.1433L8.87009 8.37723L11.1933 5.60937C11.2147 5.58437 11.2254 5.55044 11.2254 5.51651Z" fill="#E43A44"/>
<path d="M8.12891 0.341553C3.71105 0.341553 0.128906 3.9237 0.128906 8.34155C0.128906 12.7594 3.71105 16.3416 8.12891 16.3416C12.5468 16.3416 16.1289 12.7594 16.1289 8.34155C16.1289 3.9237 12.5468 0.341553 8.12891 0.341553ZM8.12891 14.9844C4.46105 14.9844 1.48605 12.0094 1.48605 8.34155C1.48605 4.6737 4.46105 1.6987 8.12891 1.6987C11.7968 1.6987 14.7718 4.6737 14.7718 8.34155C14.7718 12.0094 11.7968 14.9844 8.12891 14.9844Z" fill="#E43A44"/>
</g>
<defs>
<clipPath id="clip0_1_13676">
<rect width="16" height="16" fill="white" transform="translate(0.128906 0.341553)"/>
</clipPath>
</defs>
</svg>
