<svg width="26" height="26" viewBox="0 0 26 26" fill="none" xmlns="http://www.w3.org/2000/svg">
<g clip-path="url(#clip0_1_13679)">
<path d="M12.6288 0.366943C5.73985 0.366943 0.154099 5.9527 0.154099 12.8416C0.154099 19.7305 5.73985 25.3163 12.6288 25.3163C19.5177 25.3163 25.1034 19.7305 25.1034 12.8416C25.1034 5.9527 19.5177 0.366943 12.6288 0.366943ZM12.6288 23.2C6.90935 23.2 2.27034 18.561 2.27034 12.8416C2.27034 10.3634 3.14189 8.08564 4.59541 6.30355L19.1668 20.875C17.3847 22.3285 15.107 23.2 12.6288 23.2ZM20.6621 19.3797L6.0907 4.80826C7.8728 3.35474 10.1505 2.48318 12.6288 2.48318C18.3482 2.48318 22.9872 7.12219 22.9872 12.8416C22.9872 15.3198 22.1156 17.5976 20.6621 19.3797Z" fill="#E0232E"/>
</g>
<defs>
<clipPath id="clip0_1_13679">
<rect width="25" height="25" fill="white" transform="translate(0.128906 0.341553)"/>
</clipPath>
</defs>
</svg>
