<svg width="26" height="26" viewBox="0 0 26 26" fill="none" xmlns="http://www.w3.org/2000/svg">
<g clip-path="url(#clip0_1_13695)">
<path fill-rule="evenodd" clip-rule="evenodd" d="M13.1289 24.7166C16.1457 24.7166 19.039 23.5181 21.1722 21.3849C23.3055 19.2517 24.5039 16.3584 24.5039 13.3416C24.5039 10.3247 23.3055 7.43144 21.1722 5.29821C19.039 3.16499 16.1457 1.96655 13.1289 1.96655C10.1121 1.96655 7.21879 3.16499 5.08557 5.29821C2.95234 7.43144 1.75391 10.3247 1.75391 13.3416C1.75391 16.3584 2.95234 19.2517 5.08557 21.3849C7.21879 23.5181 10.1121 24.7166 13.1289 24.7166ZM13.1289 26.3416C16.5767 26.3416 19.8833 24.9719 22.3213 22.5339C24.7593 20.096 26.1289 16.7894 26.1289 13.3416C26.1289 9.89374 24.7593 6.58714 22.3213 4.14916C19.8833 1.71119 16.5767 0.341553 13.1289 0.341553C9.68109 0.341553 6.37449 1.71119 3.93652 4.14916C1.49855 6.58714 0.128906 9.89374 0.128906 13.3416C0.128906 16.7894 1.49855 20.096 3.93652 22.5339C6.37449 24.9719 9.68109 26.3416 13.1289 26.3416Z" fill="black"/>
<path d="M14.6401 11.047L10.9189 11.5134L10.7856 12.1309L11.5169 12.2657C11.9946 12.3795 12.0889 12.5517 11.9849 13.0279L10.7856 18.6634C10.4704 20.121 10.9562 20.8067 12.0986 20.8067C12.9842 20.8067 14.0129 20.3972 14.4793 19.835L14.6222 19.159C14.2972 19.445 13.8227 19.5587 13.5075 19.5587C13.0606 19.5587 12.8981 19.2451 13.0135 18.6926L14.6401 11.047Z" fill="black"/>
<path d="M13.1289 9.27905C14.0264 9.27905 14.7539 8.55152 14.7539 7.65405C14.7539 6.75659 14.0264 6.02905 13.1289 6.02905C12.2314 6.02905 11.5039 6.75659 11.5039 7.65405C11.5039 8.55152 12.2314 9.27905 13.1289 9.27905Z" fill="black"/>
</g>
<defs>
<clipPath id="clip0_1_13695">
<rect width="26" height="26" fill="white" transform="translate(0.128906 0.341553)"/>
</clipPath>
</defs>
</svg>
