<svg width="26" height="26" viewBox="0 0 27 31" fill="none" xmlns="http://www.w3.org/2000/svg">
<g clip-path="url(#clip0_1_13705)">
<path d="M23.24 17.6739V12.4003C23.24 7.66944 20.0839 3.68415 15.8084 2.48562C15.3851 1.40033 14.3509 0.63562 13.1289 0.63562C11.9069 0.63562 10.8727 1.40033 10.4495 2.48562C6.17391 3.68562 3.0178 7.66944 3.0178 12.4003V17.6739L0.55213 20.1841C0.417735 20.3205 0.311153 20.4825 0.238518 20.661C0.165884 20.8394 0.128633 21.0307 0.128908 21.2239V24.165C0.128908 24.5551 0.28109 24.9291 0.551976 25.2049C0.822862 25.4807 1.19026 25.6356 1.57335 25.6356H24.6845C25.0676 25.6356 25.435 25.4807 25.7058 25.2049C25.9767 24.9291 26.1289 24.5551 26.1289 24.165V21.2239C26.1292 21.0307 26.0919 20.8394 26.0193 20.661C25.9467 20.4825 25.8401 20.3205 25.7057 20.1841L23.24 17.6739ZM23.24 22.6944H3.0178V21.8327L5.48346 19.3224C5.61786 19.1861 5.72444 19.024 5.79708 18.8456C5.86971 18.6671 5.90696 18.4758 5.90669 18.2827V12.4003C5.90669 8.34591 9.14657 5.04738 13.1289 5.04738C17.1112 5.04738 20.3511 8.34591 20.3511 12.4003V18.2827C20.3511 18.6739 20.5028 19.0474 20.7744 19.3224L23.24 21.8327V22.6944ZM13.1289 30.0474C14.0235 30.0485 14.8961 29.7659 15.6256 29.2388C16.3551 28.7117 16.9052 27.9663 17.1994 27.1062H9.05846C9.35264 27.9663 9.90271 28.7117 10.6322 29.2388C11.3617 29.7659 12.2344 30.0485 13.1289 30.0474Z" fill="#23A6F0"/>
</g>
<defs>
<clipPath id="clip0_1_13705">
<rect width="26" height="30" fill="white" transform="translate(0.128906 0.341553)"/>
</clipPath>
</defs>
</svg>
