<svg width="30" height="28" viewBox="0 0 30 28" fill="none" xmlns="http://www.w3.org/2000/svg">
<g clip-path="url(#clip0_1_13686)">
<path fill-rule="evenodd" clip-rule="evenodd" d="M27.8371 3.63375C27.9302 3.72664 28.0041 3.837 28.0545 3.95849C28.1049 4.07998 28.1309 4.21022 28.1309 4.34175C28.1309 4.47329 28.1049 4.60353 28.0545 4.72502C28.0041 4.84651 27.9302 4.95686 27.8371 5.04975L13.8371 19.0498C13.7442 19.1429 13.6339 19.2168 13.5124 19.2672C13.3909 19.3176 13.2606 19.3435 13.1291 19.3435C12.9976 19.3435 12.8673 19.3176 12.7458 19.2672C12.6243 19.2168 12.514 19.1429 12.4211 19.0498L6.4211 13.0498C6.32813 12.9568 6.25437 12.8464 6.20405 12.7249C6.15374 12.6034 6.12784 12.4732 6.12784 12.3418C6.12784 12.2103 6.15374 12.0801 6.20405 11.9586C6.25437 11.8371 6.32813 11.7267 6.4211 11.6338C6.51408 11.5408 6.62446 11.467 6.74593 11.4167C6.86741 11.3664 6.99761 11.3405 7.1291 11.3405C7.26059 11.3405 7.39079 11.3664 7.51227 11.4167C7.63375 11.467 7.74413 11.5408 7.8371 11.6338L13.1291 16.9278L26.4211 3.63375C26.514 3.54063 26.6243 3.46674 26.7458 3.41633C26.8673 3.36592 26.9976 3.33997 27.1291 3.33997C27.2606 3.33997 27.3909 3.36592 27.5124 3.41633C27.6339 3.46674 27.7442 3.54063 27.8371 3.63375V3.63375Z" fill="#2DC071"/>
<path fill-rule="evenodd" clip-rule="evenodd" d="M13.1289 3.34165C10.9533 3.34165 8.82659 3.98679 7.01765 5.19549C5.20871 6.40418 3.79881 8.12215 2.96625 10.1321C2.13369 12.1421 1.91585 14.3539 2.34029 16.4876C2.76472 18.6214 3.81237 20.5815 5.35075 22.1198C6.88913 23.6582 8.84914 24.7059 10.9829 25.1303C13.1167 25.5547 15.3285 25.3369 17.3384 24.5043C19.3484 23.6718 21.0664 22.2619 22.2751 20.4529C23.4838 18.644 24.1289 16.5173 24.1289 14.3417C24.1289 14.0764 24.2343 13.8221 24.4218 13.6345C24.6094 13.447 24.8637 13.3417 25.1289 13.3417C25.3941 13.3417 25.6485 13.447 25.836 13.6345C26.0236 13.8221 26.1289 14.0764 26.1289 14.3417C26.1286 17.2033 25.184 19.9849 23.4416 22.255C21.6993 24.5252 19.2566 26.157 16.4924 26.8973C13.7281 27.6377 10.7968 27.4453 8.15308 26.35C5.50932 25.2547 3.30085 23.3176 1.87018 20.8393C0.4395 18.3609 -0.133437 15.4797 0.240223 12.6425C0.613883 9.80535 1.91326 7.17075 3.93683 5.1473C5.96041 3.12386 8.59509 1.82465 11.4323 1.45117C14.2695 1.0777 17.1506 1.65082 19.6289 3.08165C19.7484 3.14417 19.8541 3.23021 19.9394 3.33461C20.0248 3.439 20.0882 3.55959 20.1258 3.68912C20.1634 3.81865 20.1744 3.95444 20.1581 4.08832C20.1418 4.22221 20.0987 4.35142 20.0312 4.46818C19.9637 4.58495 19.8733 4.68685 19.7654 4.76777C19.6575 4.84868 19.5343 4.90694 19.4033 4.93903C19.2723 4.97111 19.1362 4.97637 19.0031 4.95448C18.87 4.93259 18.7427 4.88401 18.6289 4.81165C16.9574 3.84504 15.0598 3.33788 13.1289 3.34165V3.34165Z" fill="#2DC071"/>
</g>
<defs>
<clipPath id="clip0_1_13686">
<rect width="29" height="27" fill="white" transform="translate(0.128906 0.341553)"/>
</clipPath>
</defs>
</svg>
